<?xml version="1.0" encoding="UTF-8"?><svg id="Layer_2" xmlns="http://www.w3.org/2000/svg" viewBox="0 0 111.2 491.84"><defs><style>.cls-1{fill:#fff;}</style></defs><g id="Layer_1-2"><g><path class="cls-1" d="M2.14,0H109.06V72.71l-17.96,3.21v5.77c6.42,2.14,11.33,6.63,14.97,13.26,3.42,6.63,5.13,14.33,5.13,23.31,0,13.04-3.42,23.09-10.48,30.37-7.06,7.27-16.89,10.91-29.94,10.91H2.14V83.61H59.45v-7.7H2.14V0Z"/><path class="cls-1" d="M109.06,324.61H2.14v-72.71l17.96-3.21v-5.77c-6.42-2.14-11.33-6.42-14.76-13.04-3.64-6.63-5.35-14.54-5.35-23.52,0-13.04,3.42-23.09,10.48-30.37,7.06-7.27,16.89-10.91,29.94-10.91H109.06v75.91H51.75v7.7h57.31v75.91Z"/><path class="cls-1" d="M2.14,332.31H109.06v72.71l-17.96,3.21v5.77c6.42,2.14,11.33,6.63,14.97,13.26,3.42,6.63,5.13,14.33,5.13,23.31,0,13.04-3.42,23.09-10.48,30.37-7.06,7.27-16.89,10.91-29.94,10.91H2.14v-75.91H59.45v-7.7H2.14v-75.91Z"/></g></g></svg>